<svg width="37" height="37" viewBox="0 0 37 37" fill="none" xmlns="http://www.w3.org/2000/svg">
<path d="M18.5 30.8333C21.771 30.8333 24.908 29.5339 27.221 27.221C29.5339 24.908 30.8333 21.771 30.8333 18.5C30.8333 15.229 29.5339 12.092 27.221 9.77901C24.908 7.46606 21.771 6.16666 18.5 6.16666C15.229 6.16666 12.0919 7.46606 9.779 9.77901C7.46605 12.092 6.16665 15.229 6.16665 18.5C6.16665 21.771 7.46605 24.908 9.779 27.221C12.0919 29.5339 15.229 30.8333 18.5 30.8333ZM18.5 3.08333C20.5245 3.08333 22.5292 3.48209 24.3997 4.25685C26.2701 5.03161 27.9696 6.1672 29.4012 7.59877C30.8328 9.03034 31.9684 10.7299 32.7431 12.6003C33.5179 14.4707 33.9166 16.4755 33.9166 18.5C33.9166 22.5888 32.2924 26.51 29.4012 29.4012C26.51 32.2924 22.5887 33.9167 18.5 33.9167C9.97456 33.9167 3.08331 26.9792 3.08331 18.5C3.08331 14.4112 4.70756 10.49 7.59875 7.59877C10.4899 4.70758 14.4112 3.08333 18.5 3.08333ZM19.2708 10.7917V18.8854L26.2083 23.0017L25.0521 24.8979L16.9583 20.0417V10.7917H19.2708Z" fill="#010101"/>
</svg>
