<svg width="46" height="46" viewBox="0 0 46 46" fill="none" xmlns="http://www.w3.org/2000/svg">
<path d="M14.95 3.83333H31.05C37.1833 3.83333 42.1666 8.81667 42.1666 14.95V31.05C42.1666 33.9983 40.9954 36.8259 38.9107 38.9107C36.8259 40.9954 33.9983 42.1667 31.05 42.1667H14.95C8.81665 42.1667 3.83331 37.1833 3.83331 31.05V14.95C3.83331 12.0017 5.00453 9.17411 7.08931 7.08933C9.17409 5.00455 12.0017 3.83333 14.95 3.83333ZM14.5666 7.66667C12.7367 7.66667 10.9816 8.39363 9.68761 9.68763C8.39361 10.9816 7.66665 12.7367 7.66665 14.5667V31.4333C7.66665 35.2475 10.7525 38.3333 14.5666 38.3333H31.4333C33.2633 38.3333 35.0183 37.6064 36.3124 36.3124C37.6064 35.0184 38.3333 33.2633 38.3333 31.4333V14.5667C38.3333 10.7525 35.2475 7.66667 31.4333 7.66667H14.5666ZM33.0625 10.5417C33.6979 10.5417 34.3073 10.7941 34.7566 11.2434C35.2059 11.6927 35.4583 12.3021 35.4583 12.9375C35.4583 13.5729 35.2059 14.1823 34.7566 14.6316C34.3073 15.0809 33.6979 15.3333 33.0625 15.3333C32.4271 15.3333 31.8177 15.0809 31.3684 14.6316C30.9191 14.1823 30.6666 13.5729 30.6666 12.9375C30.6666 12.3021 30.9191 11.6927 31.3684 11.2434C31.8177 10.7941 32.4271 10.5417 33.0625 10.5417ZM23 13.4167C25.5416 13.4167 27.9792 14.4263 29.7764 16.2236C31.5736 18.0208 32.5833 20.4583 32.5833 23C32.5833 25.5417 31.5736 27.9792 29.7764 29.7764C27.9792 31.5737 25.5416 32.5833 23 32.5833C20.4583 32.5833 18.0208 31.5737 16.2235 29.7764C14.4263 27.9792 13.4166 25.5417 13.4166 23C13.4166 20.4583 14.4263 18.0208 16.2235 16.2236C18.0208 14.4263 20.4583 13.4167 23 13.4167ZM23 17.25C21.475 17.25 20.0124 17.8558 18.9341 18.9341C17.8558 20.0125 17.25 21.475 17.25 23C17.25 24.525 17.8558 25.9875 18.9341 27.0659C20.0124 28.1442 21.475 28.75 23 28.75C24.525 28.75 25.9875 28.1442 27.0658 27.0659C28.1442 25.9875 28.75 24.525 28.75 23C28.75 21.475 28.1442 20.0125 27.0658 18.9341C25.9875 17.8558 24.525 17.25 23 17.25Z" fill="#FEFEFE"/>
</svg>
