<svg width="130" height="63" viewBox="0 0 130 63" fill="none" xmlns="http://www.w3.org/2000/svg">
<path d="M0.0656642 2.048H5.86566V22H0.0656642V2.048ZM7.08366 17.331H13.2897V22H7.08366V17.331ZM12.8664 8.776C13.7364 8.776 14.3164 8.631 14.6064 8.341C14.7418 8.20567 14.8288 8.022 14.8674 7.79C14.9254 7.558 14.9544 7.24867 14.9544 6.862V6.485H12.8664V2.048H18.3764V5.412C18.3764 6.572 18.3184 7.471 18.2024 8.109C18.0864 8.747 17.8544 9.25933 17.5064 9.646C17.1391 10.052 16.5881 10.342 15.8534 10.516C15.1188 10.69 14.1231 10.777 12.8664 10.777V8.776ZM29.6221 14.634C29.6221 13.648 29.6124 12.9907 29.5931 12.662C29.5738 12.198 29.5158 11.85 29.4191 11.618C29.3224 11.3667 29.1678 11.212 28.9551 11.154C28.7231 11.096 28.4041 11.067 27.9981 11.067H27.5921V6.978H27.9981C29.6801 6.978 30.9948 7.11333 31.9421 7.384C32.8894 7.63533 33.5951 8.06067 34.0591 8.66C34.4844 9.20133 34.7551 9.92633 34.8711 10.835C35.0064 11.7243 35.0741 12.9907 35.0741 14.634C35.0741 16.1613 35.0258 17.3503 34.9291 18.201C34.8518 19.0323 34.6488 19.7187 34.3201 20.26C33.9528 20.8593 33.4018 21.3137 32.6671 21.623C31.9324 21.913 30.9174 22.0967 29.6221 22.174V14.634ZM27.9981 22.232C26.3161 22.232 25.0014 22.1063 24.0541 21.855C23.1068 21.6037 22.4011 21.1783 21.9371 20.579C21.5118 20.0377 21.2314 19.3223 21.0961 18.433C20.9801 17.5437 20.9221 16.2773 20.9221 14.634C20.9221 13.126 20.9704 11.9467 21.0671 11.096C21.1638 10.2453 21.3764 9.53967 21.7051 8.979C22.0531 8.36033 22.5944 7.906 23.3291 7.616C24.0638 7.30667 25.0788 7.11333 26.3741 7.036V14.634C26.3741 15.62 26.3838 16.2677 26.4031 16.577C26.4224 17.041 26.4804 17.389 26.5771 17.621C26.6738 17.853 26.8381 17.998 27.0701 18.056C27.2634 18.114 27.5728 18.143 27.9981 18.143H28.4041V22.232H27.9981ZM46.0438 0.452999H51.4088V22H46.0438V0.452999ZM41.8678 22.203C41.0945 22.203 40.4275 22.0773 39.8668 21.826C39.3255 21.5747 38.8905 21.1687 38.5618 20.608C38.1945 20.028 37.9238 19.2547 37.7498 18.288C37.5951 17.3213 37.5178 16.113 37.5178 14.663C37.5178 11.821 37.8658 9.82967 38.5618 8.689C39.2191 7.56767 40.3211 7.007 41.8678 7.007C42.5638 7.007 43.1341 7.065 43.5788 7.181C44.0235 7.27767 44.4391 7.48067 44.8258 7.79V11.473H44.5068C44.0815 11.473 43.7721 11.502 43.5788 11.56C43.4048 11.5987 43.2695 11.705 43.1728 11.879C43.0761 12.0917 43.0181 12.401 42.9988 12.807C42.9795 13.097 42.9698 13.6963 42.9698 14.605C42.9698 15.5137 42.9795 16.113 42.9988 16.403C43.0181 16.809 43.0761 17.1183 43.1728 17.331C43.2695 17.5243 43.4241 17.6403 43.6368 17.679C43.9075 17.7177 44.1975 17.737 44.5068 17.737H44.8258V21.42C44.4391 21.71 44.0041 21.913 43.5208 22.029C43.0568 22.145 42.5058 22.203 41.8678 22.203ZM58.9234 21.913C57.1834 21.913 56.0138 21.3813 55.4144 20.318C55.1438 19.854 54.9601 19.2933 54.8634 18.636C54.7668 17.9593 54.7184 17.1377 54.7184 16.171V7.21H60.0834V13.909C60.0834 14.9337 60.0931 15.6103 60.1124 15.939C60.1511 16.4417 60.2091 16.7897 60.2864 16.983C60.3638 17.1957 60.4894 17.331 60.6634 17.389C60.8374 17.4277 61.1468 17.447 61.5914 17.447H61.8814V21.043C61.1081 21.623 60.1221 21.913 58.9234 21.913ZM60.9244 27.974C59.9191 27.974 58.7398 27.916 57.3864 27.8L55.7044 27.626V23.885H59.5904C60.2864 23.885 60.9631 23.8657 61.6204 23.827C62.0844 23.7883 62.4228 23.6917 62.6354 23.537C62.8674 23.4017 63.0028 23.16 63.0414 22.812C63.0801 22.348 63.0994 21.855 63.0994 21.333V7.21H68.4644V20.376C68.4644 21.9227 68.3968 23.1213 68.2614 23.972C68.1454 24.8227 67.8651 25.5283 67.4204 26.089C66.9178 26.727 66.1541 27.2007 65.1294 27.51C64.1048 27.8193 62.7031 27.974 60.9244 27.974ZM82.7293 11.241C82.3619 11.2217 81.8593 11.1733 81.2213 11.096C80.0226 10.98 79.0559 10.922 78.3213 10.922H77.3643V6.978C78.7369 6.978 80.0419 7.07467 81.2793 7.268L82.7293 7.529V11.241ZM78.5243 17.505C78.5243 17.215 78.4759 17.0313 78.3793 16.954C78.2826 16.8767 78.0796 16.8187 77.7703 16.78L74.6383 16.345C73.8649 16.229 73.2366 16.0453 72.7533 15.794C72.2893 15.5427 71.9413 15.2043 71.7093 14.779C71.4773 14.4117 71.3226 13.967 71.2453 13.445C71.1679 12.923 71.1293 12.2753 71.1293 11.502C71.1293 9.91667 71.6029 8.75667 72.5503 8.022C73.3429 7.442 74.5416 7.10367 76.1463 7.007V11.56C76.1463 11.85 76.1849 12.0433 76.2623 12.14C76.3396 12.2173 76.5813 12.285 76.9873 12.343L80.4673 12.807C80.9699 12.865 81.4049 12.9713 81.7723 13.126C82.1396 13.2613 82.4489 13.474 82.7003 13.764C83.2609 14.3827 83.5413 15.5717 83.5413 17.331C83.5413 19.187 83.0676 20.4823 82.1203 21.217C81.2889 21.8357 80.0903 22.1643 78.5243 22.203V17.505ZM77.3063 22.232C75.7596 22.2127 74.4063 22.116 73.2463 21.942L71.5933 21.681V17.969C72.3666 18.0463 73.4106 18.1237 74.7253 18.201C75.4599 18.2397 75.9819 18.259 76.2913 18.259H77.3063V22.232ZM97.1726 11.241C96.8053 11.2217 96.3026 11.1733 95.6646 11.096C94.466 10.98 93.4993 10.922 92.7646 10.922H91.8076V6.978C93.1803 6.978 94.4853 7.07467 95.7226 7.268L97.1726 7.529V11.241ZM92.9676 17.505C92.9676 17.215 92.9193 17.0313 92.8226 16.954C92.726 16.8767 92.523 16.8187 92.2136 16.78L89.0816 16.345C88.3083 16.229 87.68 16.0453 87.1966 15.794C86.7326 15.5427 86.3846 15.2043 86.1526 14.779C85.9206 14.4117 85.766 13.967 85.6886 13.445C85.6113 12.923 85.5726 12.2753 85.5726 11.502C85.5726 9.91667 86.0463 8.75667 86.9936 8.022C87.7863 7.442 88.985 7.10367 90.5896 7.007V11.56C90.5896 11.85 90.6283 12.0433 90.7056 12.14C90.783 12.2173 91.0246 12.285 91.4306 12.343L94.9106 12.807C95.4133 12.865 95.8483 12.9713 96.2156 13.126C96.583 13.2613 96.8923 13.474 97.1436 13.764C97.7043 14.3827 97.9846 15.5717 97.9846 17.331C97.9846 19.187 97.511 20.4823 96.5636 21.217C95.7323 21.8357 94.5336 22.1643 92.9676 22.203V17.505ZM91.7496 22.232C90.203 22.2127 88.8496 22.116 87.6896 21.942L86.0366 21.681V17.969C86.81 18.0463 87.854 18.1237 89.1686 18.201C89.9033 18.2397 90.4253 18.259 90.7346 18.259H91.7496V22.232ZM106.773 13.155H108.803C108.803 12.0723 108.697 11.3763 108.484 11.067C108.368 10.893 108.213 10.7867 108.02 10.748C107.827 10.69 107.546 10.661 107.179 10.661H106.773V6.978H107.179C108.842 6.978 110.118 7.11333 111.007 7.384C111.916 7.65467 112.583 8.09933 113.008 8.718C113.395 9.25933 113.627 9.95533 113.704 10.806C113.801 11.6567 113.849 12.9327 113.849 14.634V15.794H106.773V13.155ZM107.759 22.232C105.98 22.232 104.579 22.087 103.554 21.797C102.549 21.4877 101.795 21.0043 101.292 20.347C100.847 19.767 100.557 19.0517 100.422 18.201C100.287 17.331 100.219 16.142 100.219 14.634C100.219 13.242 100.267 12.14 100.364 11.328C100.461 10.4967 100.664 9.791 100.973 9.211C101.321 8.573 101.853 8.08 102.568 7.732C103.303 7.36467 104.298 7.13267 105.555 7.036V15.794C105.555 16.4513 105.584 16.925 105.642 17.215C105.7 17.4857 105.835 17.6887 106.048 17.824C106.28 17.9787 106.638 18.0657 107.121 18.085C107.74 18.1237 108.397 18.143 109.093 18.143C110.33 18.143 111.229 18.114 111.79 18.056L113.269 17.94V21.681C112.496 21.913 111.432 22.0677 110.079 22.145C109.422 22.203 108.648 22.232 107.759 22.232ZM105.12 4.571L107.672 0.452999H112.979V0.597999L109.064 4.716H105.12V4.571ZM122.916 13.155H124.946C124.946 12.0723 124.839 11.3763 124.627 11.067C124.511 10.893 124.356 10.7867 124.163 10.748C123.969 10.69 123.689 10.661 123.322 10.661H122.916V6.978H123.322C124.984 6.978 126.26 7.11333 127.15 7.384C128.058 7.65467 128.725 8.09933 129.151 8.718C129.537 9.25933 129.769 9.95533 129.847 10.806C129.943 11.6567 129.992 12.9327 129.992 14.634V15.794H122.916V13.155ZM123.902 22.232C122.123 22.232 120.721 22.087 119.697 21.797C118.691 21.4877 117.937 21.0043 117.435 20.347C116.99 19.767 116.7 19.0517 116.565 18.201C116.429 17.331 116.362 16.142 116.362 14.634C116.362 13.242 116.41 12.14 116.507 11.328C116.603 10.4967 116.806 9.791 117.116 9.211C117.464 8.573 117.995 8.08 118.711 7.732C119.445 7.36467 120.441 7.13267 121.698 7.036V15.794C121.698 16.4513 121.727 16.925 121.785 17.215C121.843 17.4857 121.978 17.6887 122.191 17.824C122.423 17.9787 122.78 18.0657 123.264 18.085C123.882 18.1237 124.54 18.143 125.236 18.143C126.473 18.143 127.372 18.114 127.933 18.056L129.412 17.94V21.681C128.638 21.913 127.575 22.0677 126.222 22.145C125.564 22.203 124.791 22.232 123.902 22.232ZM23.8973 35.453H29.2623V57H23.8973V35.453ZM19.7213 57.203C18.948 57.203 18.281 57.0773 17.7203 56.826C17.179 56.5747 16.744 56.1687 16.4153 55.608C16.048 55.028 15.7773 54.2547 15.6033 53.288C15.4487 52.3213 15.3713 51.113 15.3713 49.663C15.3713 46.821 15.7193 44.8297 16.4153 43.689C17.0727 42.5677 18.1747 42.007 19.7213 42.007C20.4173 42.007 20.9877 42.065 21.4323 42.181C21.877 42.2777 22.2927 42.4807 22.6793 42.79V46.473H22.3603C21.935 46.473 21.6257 46.502 21.4323 46.56C21.2583 46.5987 21.123 46.705 21.0263 46.879C20.9297 47.0917 20.8717 47.401 20.8523 47.807C20.833 48.097 20.8233 48.6963 20.8233 49.605C20.8233 50.5137 20.833 51.113 20.8523 51.403C20.8717 51.809 20.9297 52.1183 21.0263 52.331C21.123 52.5243 21.2777 52.6403 21.4903 52.679C21.761 52.7177 22.051 52.737 22.3603 52.737H22.6793V56.42C22.2927 56.71 21.8577 56.913 21.3743 57.029C20.9103 57.145 20.3593 57.203 19.7213 57.203ZM32.8039 43.776C33.6739 43.776 34.2539 43.631 34.5439 43.341C34.6793 43.2057 34.7663 43.022 34.8049 42.79C34.8629 42.558 34.8919 42.2487 34.8919 41.862V41.485H32.8039V37.048H38.3139V40.412C38.3139 41.572 38.2559 42.471 38.1399 43.109C38.0239 43.747 37.7919 44.2593 37.4439 44.646C37.0766 45.052 36.5256 45.342 35.7909 45.516C35.0563 45.69 34.0606 45.777 32.8039 45.777V43.776ZM42.093 37.048H47.893V57H42.093V37.048ZM59.8143 50.011C59.8143 48.9863 59.8046 48.3097 59.7853 47.981C59.7466 47.4397 59.6983 47.082 59.6403 46.908C59.5629 46.7147 59.4276 46.5987 59.2343 46.56C59.0409 46.502 58.7316 46.473 58.3063 46.473H58.0163V42.848C58.7703 42.2873 59.7563 42.007 60.9743 42.007C62.7143 42.007 63.8839 42.5387 64.4833 43.602C64.7539 44.066 64.9376 44.6363 65.0343 45.313C65.1309 45.9703 65.1793 46.7823 65.1793 47.749V57H59.8143V50.011ZM51.4333 42.21H56.7983V57H51.4333V42.21ZM72.3971 56.913C71.6238 56.913 70.9664 56.7873 70.4251 56.536C69.8838 56.2653 69.4391 55.84 69.0911 55.26C68.3951 54.1387 68.0471 52.186 68.0471 49.402C68.0471 46.5987 68.3951 44.6557 69.0911 43.573C69.4391 43.0317 69.8838 42.6353 70.4251 42.384C70.9664 42.1327 71.6238 42.007 72.3971 42.007C73.0544 42.007 73.6151 42.065 74.0791 42.181C74.5431 42.297 74.9684 42.5097 75.3551 42.819V46.473H75.0361C74.6108 46.473 74.3014 46.502 74.1081 46.56C73.9341 46.5987 73.7988 46.6953 73.7021 46.85C73.6054 47.0627 73.5474 47.3623 73.5281 47.749C73.5088 48.0197 73.4991 48.59 73.4991 49.46C73.4991 50.33 73.5088 50.9003 73.5281 51.171C73.5474 51.577 73.6054 51.8767 73.7021 52.07C73.7988 52.244 73.9534 52.3503 74.1661 52.389C74.4368 52.4277 74.7268 52.447 75.0361 52.447H75.3551V56.13C74.9684 56.4393 74.5528 56.652 74.1081 56.768C73.6634 56.8647 73.0931 56.913 72.3971 56.913ZM74.3401 62.974C73.3734 62.974 72.2134 62.916 70.8601 62.8L69.1201 62.626V58.885H73.0061C73.7021 58.885 74.3788 58.8657 75.0361 58.827C75.5194 58.7883 75.8674 58.6917 76.0801 58.537C76.3121 58.4017 76.4571 58.16 76.5151 57.812C76.5538 57.348 76.5731 56.855 76.5731 56.333V42.21H81.9381V55.376C81.9381 56.884 81.8704 58.0633 81.7351 58.914C81.5998 59.784 81.3098 60.509 80.8651 61.089C80.3624 61.727 79.5891 62.2007 78.5451 62.51C77.5204 62.8193 76.1188 62.974 74.3401 62.974ZM91.3667 48.155H93.3967C93.3967 47.0723 93.2904 46.3763 93.0777 46.067C92.9617 45.893 92.8071 45.7867 92.6137 45.748C92.4204 45.69 92.1401 45.661 91.7727 45.661H91.3667V41.978H91.7727C93.4354 41.978 94.7114 42.1133 95.6007 42.384C96.5094 42.6547 97.1764 43.0993 97.6017 43.718C97.9884 44.2593 98.2204 44.9553 98.2977 45.806C98.3944 46.6567 98.4427 47.9327 98.4427 49.634V50.794H91.3667V48.155ZM92.3527 57.232C90.5741 57.232 89.1724 57.087 88.1477 56.797C87.1424 56.4877 86.3884 56.0043 85.8857 55.347C85.4411 54.767 85.1511 54.0517 85.0157 53.201C84.8804 52.331 84.8127 51.142 84.8127 49.634C84.8127 48.242 84.8611 47.14 84.9577 46.328C85.0544 45.4967 85.2574 44.791 85.5667 44.211C85.9147 43.573 86.4464 43.08 87.1617 42.732C87.8964 42.3647 88.8921 42.1327 90.1487 42.036V50.794C90.1487 51.4513 90.1777 51.925 90.2357 52.215C90.2937 52.4857 90.4291 52.6887 90.6417 52.824C90.8737 52.9787 91.2314 53.0657 91.7147 53.085C92.3334 53.1237 92.9907 53.143 93.6867 53.143C94.9241 53.143 95.8231 53.114 96.3837 53.056L97.8627 52.94V56.681C97.0894 56.913 96.0261 57.0677 94.6727 57.145C94.0154 57.203 93.2421 57.232 92.3527 57.232ZM101.39 35.453H106.755V57H101.39V35.453ZM121.018 46.241C120.651 46.2217 120.148 46.1733 119.51 46.096C118.312 45.98 117.345 45.922 116.61 45.922H115.653V41.978C117.026 41.978 118.331 42.0747 119.568 42.268L121.018 42.529V46.241ZM116.813 52.505C116.813 52.215 116.765 52.0313 116.668 51.954C116.572 51.8767 116.369 51.8187 116.059 51.78L112.927 51.345C112.154 51.229 111.526 51.0453 111.042 50.794C110.578 50.5427 110.23 50.2043 109.998 49.779C109.766 49.4117 109.612 48.967 109.534 48.445C109.457 47.923 109.418 47.2753 109.418 46.502C109.418 44.9167 109.892 43.7567 110.839 43.022C111.632 42.442 112.831 42.1037 114.435 42.007V46.56C114.435 46.85 114.474 47.0433 114.551 47.14C114.629 47.2173 114.87 47.285 115.276 47.343L118.756 47.807C119.259 47.865 119.694 47.9713 120.061 48.126C120.429 48.2613 120.738 48.474 120.989 48.764C121.55 49.3827 121.83 50.5717 121.83 52.331C121.83 54.187 121.357 55.4823 120.409 56.217C119.578 56.8357 118.379 57.1643 116.813 57.203V52.505ZM115.595 57.232C114.049 57.2127 112.695 57.116 111.535 56.942L109.882 56.681V52.969C110.656 53.0463 111.7 53.1237 113.014 53.201C113.749 53.2397 114.271 53.259 114.58 53.259H115.595V57.232Z" fill="#FEFEFE"/>
</svg>
