<svg width="27" height="27" viewBox="0 0 27 27" fill="none" xmlns="http://www.w3.org/2000/svg">
<path d="M13.365 16.3224H13.4241C14.6897 16.3561 15.7022 17.3855 15.7022 18.6511C15.7022 19.7311 14.9681 20.6339 13.9725 20.9039V21.8489C13.9725 22.1864 13.7025 22.4564 13.365 22.4564C13.0275 22.4564 12.7575 22.1864 12.7575 21.8489V20.9039C12.2617 20.7706 11.8237 20.4777 11.511 20.0705C11.1984 19.6633 11.0286 19.1645 11.0278 18.6511C11.0278 18.3136 11.2978 18.0436 11.6353 18.0436C11.9728 18.0436 12.2428 18.3136 12.2428 18.6511C12.2428 19.2755 12.7406 19.7733 13.3566 19.7733C13.9725 19.7733 14.4788 19.267 14.4788 18.6511C14.4788 18.0352 13.9725 17.5289 13.3566 17.5289H13.2975C12.6905 17.5124 12.1139 17.26 11.6901 16.8251C11.2663 16.3903 11.0287 15.8074 11.0278 15.2002C11.0278 14.1202 11.7619 13.2174 12.7575 12.9474V12.0024C12.7575 11.6649 13.0275 11.3949 13.365 11.3949C13.7025 11.3949 13.9725 11.6649 13.9725 12.0024V12.9474C14.9681 13.2174 15.7022 14.1202 15.7022 15.2002C15.7022 15.5377 15.4322 15.8077 15.0947 15.8077C14.7572 15.8077 14.4872 15.5377 14.4872 15.2002C14.4872 14.5842 13.981 14.078 13.365 14.078C12.7491 14.078 12.2428 14.5842 12.2428 15.2002C12.2428 15.8161 12.7491 16.3224 13.365 16.3224Z" fill="#70A0FF"/>
<path d="M8.88637 4.30313L11.2371 7.05375L10.9831 7.33725C6.14503 8.42232 2.53125 12.7432 2.53125 17.9086C2.53125 22.4497 6.21675 26.1352 10.7578 26.1352H15.9638C20.5048 26.1352 24.1903 22.4505 24.1903 17.9094C24.1988 12.7432 20.585 8.42232 15.7469 7.33725C15.7666 7.15896 15.7343 6.97877 15.6541 6.81835L17.6538 4.52925L17.7829 4.33013C17.9336 4.00134 17.9722 3.63214 17.8926 3.2793C17.8131 2.92647 17.6198 2.60953 17.3426 2.37725C17.0653 2.14496 16.7194 2.01018 16.3581 1.99365C15.9968 1.97711 15.6401 2.07973 15.3428 2.28572L14.6315 1.44197C14.4719 1.26342 14.2765 1.12049 14.058 1.0225C13.8396 0.924512 13.6029 0.873661 13.3634 0.873263C13.124 0.872865 12.8871 0.922928 12.6683 1.02019C12.4495 1.11745 12.2536 1.25973 12.0935 1.43775L11.3484 2.26969C11.0519 2.05942 10.6943 1.95271 10.3311 1.96607C9.96778 1.97943 9.61903 2.11212 9.33874 2.34361C9.05845 2.5751 8.86225 2.8925 8.78048 3.24671C8.69871 3.60092 8.73592 3.9722 8.88637 4.30313ZM12.0918 5.47172L10.6608 3.81797C10.9932 3.97817 11.3694 4.02365 11.7305 3.94732C12.0915 3.87099 12.4171 3.67714 12.6562 3.3961L13.3313 2.52029L14.0805 3.40791C14.3141 3.67958 14.6293 3.86849 14.979 3.94649C15.3287 4.02449 15.6942 3.9874 16.0211 3.84075L14.5969 5.47172H12.0918ZM4.21875 17.9086C4.21875 12.8562 8.31263 8.76235 13.365 8.76235C18.4174 8.76235 22.5113 12.8562 22.5028 17.9069V17.9086C22.5021 19.6427 21.813 21.3055 20.5868 22.5317C19.3607 23.7578 17.6978 24.447 15.9638 24.4477H10.7578C9.02375 24.447 7.3609 23.7578 6.13474 22.5317C4.90857 21.3055 4.21942 19.6427 4.21875 17.9086Z" fill="#70A0FF"/>
</svg>
