<svg width="31" height="31" viewBox="0 0 31 31" fill="none" xmlns="http://www.w3.org/2000/svg">
<path d="M20.6667 20.6667C20.6667 19.2394 16.6186 18.0833 11.625 18.0833M20.6667 20.6667C20.6667 22.094 16.6186 23.25 11.625 23.25C6.63144 23.25 2.58335 22.094 2.58335 20.6667M20.6667 20.6667V27.0436C20.6667 28.5148 16.6186 29.7083 11.625 29.7083C6.63144 29.7083 2.58335 28.5161 2.58335 27.0436V20.6667M20.6667 20.6667C25.606 20.6667 29.7084 19.3918 29.7084 18.0833V5.16666M11.625 18.0833C6.63144 18.0833 2.58335 19.2394 2.58335 20.6667M11.625 18.0833C5.91844 18.0833 1.29169 16.8085 1.29169 15.5V9.04166M11.625 6.45833C5.91844 6.45833 1.29169 7.61437 1.29169 9.04166M1.29169 9.04166C1.29169 10.469 5.91844 11.625 11.625 11.625C11.625 12.9335 15.8268 14.2083 20.7661 14.2083C25.7042 14.2083 29.7084 12.9335 29.7084 11.625M29.7084 5.16666C29.7084 3.73937 25.7042 2.58333 20.7661 2.58333C15.8268 2.58333 11.8239 3.73937 11.8239 5.16666M29.7084 5.16666C29.7084 6.59395 25.7042 7.74999 20.7661 7.74999C15.8281 7.74999 11.8239 6.59395 11.8239 5.16666M11.8239 5.16666V18.2977" stroke="#010101" stroke-width="2"/>
</svg>
