<svg width="48" height="48" viewBox="0 0 48 48" fill="none" xmlns="http://www.w3.org/2000/svg">
<path d="M38.5612 36.4388C38.7006 36.5781 38.8111 36.7436 38.8866 36.9257C38.962 37.1077 39.0008 37.3029 39.0008 37.5C39.0008 37.6971 38.962 37.8923 38.8866 38.0743C38.8111 38.2564 38.7006 38.4219 38.5612 38.5613C38.4219 38.7006 38.2564 38.8112 38.0743 38.8866C37.8922 38.962 37.6971 39.0008 37.5 39.0008C37.3029 39.0008 37.1077 38.962 36.9256 38.8866C36.7435 38.8112 36.5781 38.7006 36.4387 38.5613L24 26.1206L11.5612 38.5613C11.2798 38.8427 10.898 39.0008 10.5 39.0008C10.1019 39.0008 9.72019 38.8427 9.43873 38.5613C9.15727 38.2798 8.99915 37.898 8.99915 37.5C8.99915 37.102 9.15727 36.7202 9.43873 36.4388L21.8794 24L9.43873 11.5613C9.15727 11.2798 8.99915 10.898 8.99915 10.5C8.99915 10.102 9.15727 9.72021 9.43873 9.43875C9.72019 9.15729 10.1019 8.99917 10.5 8.99917C10.898 8.99917 11.2798 9.15729 11.5612 9.43875L24 21.8794L36.4387 9.43875C36.7202 9.15729 37.1019 8.99917 37.5 8.99917C37.898 8.99917 38.2798 9.15729 38.5612 9.43875C38.8427 9.72021 39.0008 10.102 39.0008 10.5C39.0008 10.898 38.8427 11.2798 38.5612 11.5613L26.1206 24L38.5612 36.4388Z" fill="#FEFEFE"/>
</svg>
