<svg width="52" height="52" viewBox="0 0 52 52" fill="none" xmlns="http://www.w3.org/2000/svg">
<path d="M48.75 25.8578C48.75 25.7461 48.75 25.6191 48.7449 25.4719C48.7398 25.0605 48.7297 24.5984 48.7195 24.1059C48.6789 22.6891 48.6078 21.2773 48.4961 19.9469C48.3438 18.1137 48.1203 16.5852 47.8156 15.4375C47.4941 14.2398 46.8638 13.1475 45.9879 12.2697C45.1119 11.392 44.0208 10.7595 42.8238 10.4355C41.3867 10.0496 38.5734 9.81094 34.6125 9.66367C32.7285 9.59258 30.7125 9.54687 28.6965 9.52148C27.9906 9.51133 27.3355 9.50625 26.7465 9.50117H25.2535C24.6645 9.50625 24.0094 9.51133 23.3035 9.52148C21.2875 9.54687 19.2715 9.59258 17.3875 9.66367C13.4266 9.81602 10.6082 10.0547 9.17617 10.4355C7.97875 10.7587 6.88731 11.3909 6.0112 12.2688C5.1351 13.1467 4.50511 14.2394 4.18438 15.4375C3.87461 16.5852 3.65625 18.1137 3.50391 19.9469C3.39219 21.2773 3.32109 22.6891 3.28047 24.1059C3.26523 24.5984 3.26016 25.0605 3.25508 25.4719C3.25508 25.6191 3.25 25.7461 3.25 25.8578V26.1422C3.25 26.2539 3.25 26.3809 3.25508 26.5281C3.26016 26.9395 3.27031 27.4016 3.28047 27.8941C3.32109 29.3109 3.39219 30.7227 3.50391 32.0531C3.65625 33.8863 3.87969 35.4148 4.18438 36.5625C4.83438 38.9949 6.74375 40.9145 9.17617 41.5645C10.6082 41.9504 13.4266 42.1891 17.3875 42.3363C19.2715 42.4074 21.2875 42.4531 23.3035 42.4785C24.0094 42.4887 24.6645 42.4938 25.2535 42.4988H26.7465C27.3355 42.4938 27.9906 42.4887 28.6965 42.4785C30.7125 42.4531 32.7285 42.4074 34.6125 42.3363C38.5734 42.184 41.3918 41.9453 42.8238 41.5645C45.2562 40.9145 47.1656 39 47.8156 36.5625C48.1254 35.4148 48.3438 33.8863 48.4961 32.0531C48.6078 30.7227 48.6789 29.3109 48.7195 27.8941C48.7348 27.4016 48.7398 26.9395 48.7449 26.5281C48.7449 26.3809 48.75 26.2539 48.75 26.1422V25.8578ZM45.0938 26.1219C45.0938 26.2285 45.0938 26.3453 45.0887 26.4824C45.0836 26.8785 45.0734 27.3152 45.0633 27.7875C45.0277 29.1383 44.9566 30.4891 44.85 31.7434C44.7129 33.3785 44.5199 34.7191 44.2812 35.618C43.9664 36.791 43.0422 37.7203 41.8742 38.0301C40.8078 38.3145 38.1215 38.543 34.4703 38.6801C32.6219 38.7512 30.6312 38.7969 28.6457 38.8223C27.95 38.8324 27.3051 38.8375 26.7262 38.8375H25.2738L23.3543 38.8223C21.3687 38.7969 19.3832 38.7512 17.5297 38.6801C13.8785 38.5379 11.1871 38.3145 10.1258 38.0301C8.95781 37.7152 8.03359 36.791 7.71875 35.618C7.48008 34.7191 7.28711 33.3785 7.15 31.7434C7.04336 30.4891 6.97734 29.1383 6.93672 27.7875C6.92148 27.3152 6.91641 26.8734 6.91133 26.4824C6.91133 26.3453 6.90625 26.2234 6.90625 26.1219V25.8781C6.90625 25.7715 6.90625 25.6547 6.91133 25.5176C6.91641 25.1215 6.92656 24.6848 6.93672 24.2125C6.97227 22.8617 7.04336 21.5109 7.15 20.2566C7.28711 18.6215 7.48008 17.2809 7.71875 16.382C8.03359 15.209 8.95781 14.2797 10.1258 13.9699C11.1922 13.6855 13.8785 13.457 17.5297 13.3199C19.3781 13.2488 21.3687 13.2031 23.3543 13.1777C24.05 13.1676 24.6949 13.1625 25.2738 13.1625H26.7262L28.6457 13.1777C30.6312 13.2031 32.6168 13.2488 34.4703 13.3199C38.1215 13.4621 40.8129 13.6855 41.8742 13.9699C43.0422 14.2848 43.9664 15.209 44.2812 16.382C44.5199 17.2809 44.7129 18.6215 44.85 20.2566C44.9566 21.5109 45.0227 22.8617 45.0633 24.2125C45.0785 24.6848 45.0836 25.1266 45.0887 25.5176C45.0887 25.6547 45.0938 25.7766 45.0938 25.8781V26.1219ZM21.4805 32.8047L33.2617 25.9492L21.4805 19.1953V32.8047Z" fill="#FEFEFE"/>
</svg>
